<mxfile host="app.diagrams.net" modified="2024-06-15T19:05:01.534Z" agent="Mozilla/5.0 (Windows NT 10.0; Win64; x64) AppleWebKit/537.36 (KHTML, like Gecko) Chrome/125.0.0.0 Safari/537.36" version="24.5.4" etag="3DzIesdKWH0cWYh3oohh" type="github">
  <diagram name="Page-1" id="tfpjZekmRWt5YAe0co8Z">
    <mxGraphModel>
      <root>
        <mxCell id="0" />
        <mxCell id="1" parent="0" />
      </root>
    </mxGraphModel>
  </diagram>
</mxfile>
